<?xml version="1.0" encoding="UTF-8" standalone="no"?>
<!-- Created with Inkscape (http://www.inkscape.org/) -->

<svg
   xmlns:dc="http://purl.org/dc/elements/1.1/"
   xmlns:cc="http://creativecommons.org/ns#"
   xmlns:rdf="http://www.w3.org/1999/02/22-rdf-syntax-ns#"
   xmlns:svg="http://www.w3.org/2000/svg"
   xmlns="http://www.w3.org/2000/svg"
   xmlns:xlink="http://www.w3.org/1999/xlink"
   xmlns:sodipodi="http://sodipodi.sourceforge.net/DTD/sodipodi-0.dtd"
   xmlns:inkscape="http://www.inkscape.org/namespaces/inkscape"
   width="48"
   height="48"
   id="svg5453"
   version="1.1"
   inkscape:version="0.91 r13725"
   sodipodi:docname="corebird.svg">
  <defs
     id="defs5455">
    <linearGradient
       inkscape:collect="always"
       id="linearGradient4232">
      <stop
         style="stop-color:#f5cbf0;stop-opacity:1;"
         offset="0"
         id="stop4234" />
      <stop
         style="stop-color:#f792e8;stop-opacity:1"
         offset="1"
         id="stop4236" />
    </linearGradient>
    <linearGradient
       inkscape:collect="always"
       id="linearGradient4249">
      <stop
         style="stop-color:#68bbdb;stop-opacity:1"
         offset="0"
         id="stop4251" />
      <stop
         style="stop-color:#9ed3d6;stop-opacity:1"
         offset="1"
         id="stop4253" />
    </linearGradient>
    <linearGradient
       inkscape:collect="always"
       xlink:href="#linearGradient4249"
       id="linearGradient4226"
       gradientUnits="userSpaceOnUse"
       gradientTransform="matrix(1.1726973,0,0,1.1726973,-397.4394,-586.62257)"
       x1="360.30582"
       y1="534.58417"
       x2="360.30582"
       y2="503.798" />
    <linearGradient
       inkscape:collect="always"
       xlink:href="#linearGradient4232"
       id="linearGradient4238"
       x1="33.704887"
       y1="36.390625"
       x2="33.704887"
       y2="4.6069412"
       gradientUnits="userSpaceOnUse" />
  </defs>
  <sodipodi:namedview
     id="base"
     pagecolor="#ffffff"
     bordercolor="#666666"
     borderopacity="1.0"
     inkscape:pageopacity="0"
     inkscape:pageshadow="2"
     inkscape:zoom="8"
     inkscape:cx="43.790833"
     inkscape:cy="26.516928"
     inkscape:document-units="px"
     inkscape:current-layer="layer1"
     showgrid="true"
     fit-margin-top="0"
     fit-margin-left="0"
     fit-margin-right="0"
     fit-margin-bottom="0"
     inkscape:window-width="1486"
     inkscape:window-height="1111"
     inkscape:window-x="1070"
     inkscape:window-y="295"
     inkscape:window-maximized="0"
     inkscape:showpageshadow="false"
     borderlayer="true"
     showguides="true"
     inkscape:snap-bbox="true"
     inkscape:bbox-nodes="false"
     inkscape:snap-grids="false"
     inkscape:object-nodes="true"
     inkscape:snap-global="false"
     inkscape:snap-bbox-edge-midpoints="true">
    <inkscape:grid
       type="xygrid"
       id="grid4063" />
    <sodipodi:guide
       position="1.1650391e-05,47.999996"
       orientation="4,0"
       id="guide4146" />
    <sodipodi:guide
       position="1.1650391e-05,43.999996"
       orientation="0,48"
       id="guide4148" />
    <sodipodi:guide
       position="48.000012,43.999996"
       orientation="-4,0"
       id="guide4150" />
    <sodipodi:guide
       position="48.000012,47.999996"
       orientation="0,-48"
       id="guide4152" />
    <sodipodi:guide
       position="1.1650391e-05,4.0000264"
       orientation="4,0"
       id="guide4154" />
    <sodipodi:guide
       position="1.1650391e-05,2.6367188e-05"
       orientation="0,48"
       id="guide4156" />
    <sodipodi:guide
       position="48.000012,2.6367188e-05"
       orientation="-4,0"
       id="guide4158" />
    <sodipodi:guide
       position="48.000012,4.0000264"
       orientation="0,-48"
       id="guide4160" />
    <sodipodi:guide
       position="48.000012,48.000026"
       orientation="0,-4"
       id="guide4162" />
    <sodipodi:guide
       position="44.000012,48.000026"
       orientation="48,0"
       id="guide4164" />
    <sodipodi:guide
       position="44.000012,2.6367188e-05"
       orientation="0,4"
       id="guide4166" />
    <sodipodi:guide
       position="48.000012,2.6367188e-05"
       orientation="-48,0"
       id="guide4168" />
    <sodipodi:guide
       position="4.0000422,48.000026"
       orientation="0,-4"
       id="guide4170" />
    <sodipodi:guide
       position="4.2167969e-05,48.000026"
       orientation="48,0"
       id="guide4172" />
    <sodipodi:guide
       position="4.2167969e-05,2.6367188e-05"
       orientation="0,4"
       id="guide4174" />
    <sodipodi:guide
       position="4.0000422,2.6367188e-05"
       orientation="-48,0"
       id="guide4176" />
  </sodipodi:namedview>
  <metadata
     id="metadata5458">
    <rdf:RDF>
      <cc:Work
         rdf:about="">
        <dc:format>image/svg+xml</dc:format>
        <dc:type
           rdf:resource="http://purl.org/dc/dcmitype/StillImage" />
        <dc:title />
      </cc:Work>
    </rdf:RDF>
  </metadata>
  <g
     inkscape:label="Capa 1"
     inkscape:groupmode="layer"
     id="layer1"
     transform="translate(-384.57143,-499.798)">
    <path
       style="opacity:1;fill:url(#linearGradient4238);fill-opacity:1;fill-rule:evenodd;stroke:none;stroke-width:1px;stroke-linecap:butt;stroke-linejoin:miter;stroke-opacity:1"
       d="M 30.982422 8.2070312 C 30.833869 8.2151673 30.685509 8.2323127 30.537109 8.2460938 C 30.34516 8.2623998 30.154165 8.2871041 29.962891 8.3144531 C 29.301604 8.4113501 28.652028 8.5673153 28.039062 8.7929688 C 27.922514 8.8377197 27.805682 8.8832867 27.691406 8.9335938 C 27.640746 8.9549238 27.591061 8.977686 27.541016 9 C 27.238253 9.141223 26.94758 9.3089184 26.666016 9.4921875 C 26.62729 9.5174158 26.58709 9.5403515 26.548828 9.5664062 C 26.275218 9.7525824 26.014356 9.9615235 25.767578 10.191406 C 25.684007 10.269324 25.603508 10.350456 25.523438 10.433594 C 25.468079 10.491019 25.411021 10.54551 25.357422 10.605469 C 25.22275 10.756272 25.091525 10.91484 24.96875 11.082031 C 24.966013 11.085758 24.963668 11.090015 24.960938 11.09375 C 24.916725 11.154229 24.876543 11.220539 24.833984 11.283203 C 24.750452 11.406221 24.66866 11.530533 24.591797 11.662109 C 24.543522 11.744709 24.498641 11.831932 24.453125 11.917969 C 24.387828 12.041467 24.324995 12.168138 24.265625 12.298828 C 24.227196 12.38337 24.190143 12.469037 24.154297 12.556641 C 24.091271 12.71077 24.033216 12.8714 23.978516 13.035156 C 23.951468 13.116099 23.921418 13.194009 23.896484 13.277344 C 23.822396 13.525022 23.757637 13.78156 23.703125 14.050781 C 23.700555 14.063475 23.697838 14.077101 23.695312 14.089844 C 23.644804 14.344724 23.606078 14.610134 23.574219 14.884766 C 23.563273 14.978999 23.555534 15.077223 23.546875 15.173828 C 23.528858 15.375155 23.515589 15.581207 23.507812 15.792969 C 23.503372 15.913634 23.501007 16.036048 23.5 16.160156 C 23.498374 16.362389 23.502009 16.57171 23.509766 16.783203 C 23.514728 16.918374 23.518437 17.050442 23.527344 17.189453 C 23.548961 17.527457 23.57917 17.873264 23.625 18.234375 C 23.625 18.234375 24.647623 18.673175 25.986328 19.552734 C 29.599897 21.926929 35.509705 27.516609 29.783203 36.390625 C 29.786808 36.388151 29.791318 36.387243 29.794922 36.384766 C 29.961726 36.270005 30.126445 36.15031 30.291016 36.029297 C 30.296227 36.02547 30.301432 36.021411 30.306641 36.017578 C 30.310699 36.014283 30.314305 36.011108 30.318359 36.007812 C 33.436675 33.473031 35.3139 30.837781 36.445312 28.724609 C 36.456077 28.704219 36.467311 28.684123 36.478516 28.664062 C 36.489921 28.642312 36.502308 28.621436 36.513672 28.599609 C 36.516969 28.593352 36.5182 28.588279 36.521484 28.582031 C 36.811692 28.029957 37.05435 27.514231 37.253906 27.048828 C 37.859349 25.636818 38.091244 24.677737 38.21875 24.5 C 38.23742 24.47398 38.254937 24.433787 38.273438 24.404297 C 38.442846 23.894224 38.598435 23.36196 38.75 22.822266 C 38.799945 22.643112 38.8506 22.463848 38.898438 22.28125 C 39.021396 21.816159 39.137105 21.339156 39.246094 20.851562 C 39.3167 20.531903 39.380944 20.202603 39.445312 19.873047 C 39.525293 19.46856 39.605658 19.066423 39.675781 18.646484 C 39.805696 17.859939 39.925031 17.055746 40.019531 16.214844 C 41.685377 15.156495 42.29495 14.251904 43.445312 12.71875 C 43.599406 12.487489 43.749962 12.273949 43.910156 12.011719 C 43.804015 12.043644 43.77597 12.049554 43.673828 12.080078 C 43.463808 12.158133 42.740854 12.407358 40.974609 12.859375 C 39.990627 13.130601 39.382812 13.287109 39.382812 13.287109 C 39.382812 13.287109 39.454359 13.23871 39.464844 13.232422 C 39.443499 13.23739 39.431678 13.241101 39.410156 13.246094 C 41.04956 12.067147 41.862322 11.077703 42.279297 10.330078 C 42.339868 10.216992 42.396821 10.102692 42.449219 9.984375 C 42.719897 9.3723772 42.719016 8.9678137 42.734375 8.8496094 C 42.106325 9.0877075 42.102885 9.0823226 41.619141 9.2636719 C 40.711165 9.6182154 39.946516 9.8979858 39.138672 10.183594 C 38.048305 10.575742 37.605469 10.720703 37.605469 10.720703 C 37.545509 10.580249 37.465297 10.447154 37.375 10.316406 C 37.35339 10.286316 37.330311 10.256322 37.306641 10.226562 C 37.261611 10.166982 37.209211 10.110099 37.158203 10.052734 C 37.157609 10.052108 37.156845 10.051407 37.15625 10.050781 C 37.031825 9.9200119 36.884227 9.7936912 36.722656 9.671875 C 36.704705 9.6583501 36.688301 9.6442614 36.669922 9.6308594 C 36.586448 9.5699552 36.486508 9.5152055 36.394531 9.4570312 C 36.230892 9.3535692 36.055236 9.2539122 35.867188 9.1601562 C 35.764358 9.1089789 35.662135 9.0576733 35.552734 9.0097656 C 35.347801 8.9198563 35.127721 8.8389904 34.902344 8.7617188 C 34.715491 8.6979086 34.523004 8.6400292 34.324219 8.5859375 C 34.112685 8.5281176 33.898558 8.4734958 33.675781 8.4277344 C 33.508298 8.3935418 33.336766 8.3666809 33.164062 8.3398438 C 32.959512 8.3078529 32.751349 8.2826571 32.541016 8.2617188 C 32.371684 8.2450358 32.203394 8.2239316 32.03125 8.2148438 C 31.687792 8.1964927 31.341627 8.1926029 30.992188 8.2070312 C 30.988903 8.2071668 30.985706 8.2068926 30.982422 8.2070312 z "
       transform="translate(384.57143,499.798)"
       id="path4212" />
    <path
       style="opacity:1;fill:url(#linearGradient4226);fill-opacity:1;fill-rule:evenodd;stroke:none;stroke-width:1px;stroke-linecap:butt;stroke-linejoin:miter;stroke-opacity:1"
       d="M 6.6015625 9.5664062 C 3.7340725 17.258826 9.1679688 20.488281 9.1679688 20.488281 C 9.1679688 20.488281 8.3944675 20.877972 5.4296875 19.607422 C 5.4296875 19.607422 5.0997552 26.027536 11.916016 27.634766 C 10.193566 28.105946 8.4160156 27.798828 8.4160156 27.798828 C 8.4160156 27.798828 10.157495 33.498047 15.984375 33.498047 C 15.984375 33.498047 13.60628 36.161901 4 36.832031 C 7.7660615 39.578883 20.448896 42.796798 29.783203 36.390625 C 35.509705 27.516609 29.599897 21.926929 25.986328 19.552734 C 24.647623 18.673175 23.625 18.234375 23.625 18.234375 C 13.55693 18.133485 6.6015625 9.5664062 6.6015625 9.5664062 z "
       transform="translate(384.57143,499.798)"
       id="path4217" />
  </g>
</svg>
